<svg xmlns="http://www.w3.org/2000/svg" data-name="Layer 1" viewBox="0 0 128 160" x="0px" y="0px"><title>miscellaneous 48 expandline</title><path d="M123.63,26h-1.85a20.53,20.53,0,0,0-1.55-3.74l1.31-1.31a4.53,4.53,0,0,0-.21-6.39l-1.89-1.89a4.54,4.54,0,0,0-6.39-.21l-1.31,1.31A20.55,20.55,0,0,0,108,12.22V10.37A4.53,4.53,0,0,0,103.33,6h-2.66A4.53,4.53,0,0,0,96,10.37v1.85a20.38,20.38,0,0,0-3.74,1.55L91,12.46a4.54,4.54,0,0,0-6.39.21l-1.88,1.88A4.54,4.54,0,0,0,82.46,21l1.31,1.31A20.48,20.48,0,0,0,82.22,26H80.37A4.53,4.53,0,0,0,76,30.67v2.66A4.53,4.53,0,0,0,80.37,38h1.85a20.56,20.56,0,0,0,1.55,3.74l-1.32,1.32a4.54,4.54,0,0,0,.21,6.39l1.89,1.89a4.55,4.55,0,0,0,6.39.21l1.31-1.31A20.48,20.48,0,0,0,96,51.78v1.85A4.53,4.53,0,0,0,100.67,58h2.66A4.53,4.53,0,0,0,108,53.63V51.78a20.48,20.48,0,0,0,3.74-1.55l1.32,1.32a4.55,4.55,0,0,0,6.39-.22l1.88-1.89a4.54,4.54,0,0,0,.21-6.39l-1.31-1.31A20.56,20.56,0,0,0,121.78,38h1.85A4.53,4.53,0,0,0,128,33.33V30.67A4.53,4.53,0,0,0,123.63,26Zm.37,7.33c0,.42-.24.67-.37.67h-5l-.34,1.57A16.67,16.67,0,0,1,116,41l-.87,1.35,3.54,3.54c.09.09.08.45-.21.74l-1.88,1.88c-.3.29-.65.3-.74.21l-3.54-3.55L111,46a16.5,16.5,0,0,1-5.41,2.24l-1.57.34v5c0,.13-.25.37-.67.37h-2.66c-.42,0-.67-.24-.67-.37v-5l-1.57-.34A16.52,16.52,0,0,1,93,46l-1.36-.87-3.53,3.54c-.09.09-.43.1-.74-.21L85.5,46.62c-.29-.29-.3-.65-.21-.74l3.54-3.54L88,41a16.56,16.56,0,0,1-2.24-5.41L85.38,34h-5c-.13,0-.37-.25-.37-.67V30.67c0-.41.24-.67.37-.67h5l.34-1.58A16.51,16.51,0,0,1,88,23l.87-1.36-3.54-3.54c-.09-.09-.08-.44.21-.74l1.88-1.88c.29-.29.64-.32.74-.21l3.54,3.54L93,18a16.51,16.51,0,0,1,5.41-2.24l1.57-.34v-5c0-.13.25-.37.67-.37h2.66c.42,0,.67.24.67.37v5l1.58.34A16.55,16.55,0,0,1,111,18l1.35.87,3.54-3.54c.09-.09.44-.08.73.21l1.88,1.89c.29.29.3.64.21.74l-3.54,3.54L116,23a16.57,16.57,0,0,1,2.24,5.41l.34,1.57h5c.13,0,.37.25.37.67Z"/><path d="M102,21.39A10.61,10.61,0,1,0,112.61,32,10.61,10.61,0,0,0,102,21.39Zm0,17.21A6.61,6.61,0,1,1,108.61,32,6.61,6.61,0,0,1,102,38.61Z"/><path d="M4.37,38H6.22a20.56,20.56,0,0,0,1.55,3.74L6.46,43.05a4.54,4.54,0,0,0,.21,6.39l1.89,1.89a4.55,4.55,0,0,0,6.39.21l1.31-1.31A20.48,20.48,0,0,0,20,51.78v1.85A4.53,4.53,0,0,0,24.67,58h2.66A4.53,4.53,0,0,0,32,53.63V51.78a20.48,20.48,0,0,0,3.74-1.55l1.32,1.32a4.55,4.55,0,0,0,6.39-.22l1.88-1.89a4.54,4.54,0,0,0,.21-6.39l-1.31-1.31A20.56,20.56,0,0,0,45.78,38h1.85A4.53,4.53,0,0,0,52,33.33V30.67A4.53,4.53,0,0,0,47.63,26H45.78a20.53,20.53,0,0,0-1.55-3.74l1.31-1.31a4.53,4.53,0,0,0-.21-6.39l-1.89-1.89a4.54,4.54,0,0,0-6.39-.21l-1.31,1.31A20.55,20.55,0,0,0,32,12.22V10.37A4.53,4.53,0,0,0,27.33,6H24.67A4.53,4.53,0,0,0,20,10.37v1.85a20.38,20.38,0,0,0-3.74,1.55L15,12.46a4.54,4.54,0,0,0-6.39.21L6.67,14.56A4.54,4.54,0,0,0,6.46,21l1.31,1.31A20.48,20.48,0,0,0,6.22,26H4.37A4.53,4.53,0,0,0,0,30.67v2.66A4.53,4.53,0,0,0,4.37,38ZM4,30.67c0-.41.24-.67.37-.67h5l.34-1.58A16.51,16.51,0,0,1,12,23l.87-1.36L9.29,18.12c-.09-.09-.08-.44.21-.74l1.88-1.88c.29-.29.63-.32.74-.21l3.54,3.54L17,18a16.51,16.51,0,0,1,5.41-2.24L24,15.38v-5c0-.13.25-.37.67-.37h2.66c.42,0,.67.24.67.37v5l1.58.34A16.55,16.55,0,0,1,35,18l1.35.87,3.54-3.54c.09-.09.44-.08.73.21l1.88,1.89c.29.29.3.64.21.74l-3.54,3.54L40,23a16.57,16.57,0,0,1,2.24,5.41L42.62,30h5c.13,0,.37.25.37.67v2.66c0,.42-.24.67-.37.67h-5l-.34,1.57A16.67,16.67,0,0,1,40,41l-.87,1.35,3.54,3.54c.09.09.08.45-.21.74L40.62,48.5c-.3.29-.65.3-.74.21l-3.54-3.55L35,46a16.5,16.5,0,0,1-5.41,2.24L28,48.62v5c0,.13-.25.37-.67.37H24.67c-.42,0-.67-.24-.67-.37v-5l-1.57-.34A16.52,16.52,0,0,1,17,46l-1.36-.87-3.53,3.54c-.09.09-.44.1-.74-.21L9.5,46.62c-.29-.29-.3-.65-.21-.74l3.54-3.54L12,41a16.56,16.56,0,0,1-2.24-5.41L9.38,34h-5c-.13,0-.37-.25-.37-.67Z"/><path d="M26,42.61A10.61,10.61,0,1,0,15.39,32,10.61,10.61,0,0,0,26,42.61Zm0-17.21A6.61,6.61,0,1,1,19.39,32,6.61,6.61,0,0,1,26,25.39Z"/><path d="M101,68.69a2,2,0,0,0-1.1-1.77l-35-17.7a2,2,0,0,0-1.81,0l-35,17.7a2,2,0,0,0,0,3.56l4.17,2.18L28,74.95a2,2,0,0,0,0,3.53l4.17,2.18L28,82.95a2,2,0,0,0,0,3.53l35.05,18.3a2,2,0,0,0,1.85,0l34.95-18.3A2,2,0,0,0,100,83l-4.11-2.39,4-2.11A2,2,0,0,0,100,75l-4.11-2.39,4-2.11A2,2,0,0,0,101,68.69ZM64,53.24,94.63,68.73l-30.58,16-30.68-16Zm0,47.5L33.24,84.66l3.26-1.78L63.13,96.77a2,2,0,0,0,1.85,0l26.72-14,3.16,1.83Zm0-8L33.24,76.66l3.26-1.78L63.13,88.77a2,2,0,0,0,1.85,0l26.72-14,3.16,1.83Z"/><path d="M114,95a6,6,0,1,0-6,6A6,6,0,0,0,114,95Zm-8,0a2,2,0,1,1,2,2A2,2,0,0,1,106,95Z"/><circle cx="118" cy="103" r="2"/><path d="M20,89a6,6,0,1,0,6,6A6,6,0,0,0,20,89Zm0,8a2,2,0,1,1,2-2A2,2,0,0,1,20,97Z"/><circle cx="10" cy="103" r="2"/><path d="M72,34H56a8.81,8.81,0,0,1-1.3,4H73.33A8.81,8.81,0,0,1,72,34Z"/><path d="M124.16,52.27l-.16.16V108a2,2,0,0,1-2,2H6a2,2,0,0,1-2-2V52.43l-.16-.16A8.64,8.64,0,0,1,2.43,41.76a8.16,8.16,0,0,1-2.43-1V108a6,6,0,0,0,6,6H56v4H47a2,2,0,0,0,0,4H81a2,2,0,0,0,0-4H72v-4h50a6,6,0,0,0,6-6V40.72a8.16,8.16,0,0,1-2.43,1A8.64,8.64,0,0,1,124.16,52.27ZM68,118H60v-4h8Z"/><text x="0" y="143" fill="#000000" font-size="5px" font-weight="bold" font-family="'Helvetica Neue', Helvetica, Arial-Unicode, Arial, Sans-serif">Created by WEBTECHOPS LLP</text><text x="0" y="148" fill="#000000" font-size="5px" font-weight="bold" font-family="'Helvetica Neue', Helvetica, Arial-Unicode, Arial, Sans-serif">from the Noun Project</text></svg>